Description

Poster: http://cdn.piczend.com/image/itunnrjncegsininjdlvdo4fp.jpeg
Release date: 2012
Genre: Animation, Adventure, Comedy, Family
Plot: Manny, Diego, and Sid embark upon another adventure after their continent is set adrift. Using an iceberg as a ship, they encounter sea creatures and battle pirates as they explore a new world.
--------------------------------

Runtime: 1 h 28 min
Rating: 6.6/10
Votes: 58,824
Writer(s)/Director(s): Michael Berg, Jason Fuchs/Steve Martino, Mike Thurmeier
Actors: Ray Romano, Denis Leary, John Leguizamo, Aziz Ansari
Trailer: http://www.imdb.com/video/imdb/vi2524815897/

Screenshots:
 
http://cdn.piczend.com/image/5zutbkq9yduvxapwzgbhijr0o.jpeg
 
http://cdn.piczend.com/image/ngbtncpcx8e7odvixg5xwsm3t.jpeg
 
http://cdn.piczend.com/image/uccbtqoahynkdqhcufry0zl7v.jpeg
 
http://cdn.piczend.com/image/iuevoyfg0gzhvzpjd0nkxp426.jpeg


Mediainfo:
General
Complete name : 	Ice Age: Continental Drift (2012) DVDRip 304p [Zend]/Ice Age: Continental Drift (2012) DVDRip 304p [Zend].mp4
Format : 	MPEG-4
Format profile : 	Base Media
Codec ID : 	isom
File size : 	1.19 GiB
Duration : 	1h 27mn
Overall bit rate : 	1 938 Kbps
Writing application : 	Lavf53.21.1

Video
ID : 	1
Format : 	AVC
Format/Info : 	Advanced Video Codec
Format profile : 	Main@L3.0
Format settings, CABAC : 	Yes
Format settings, ReFrames : 	3 frames
Codec ID : 	avc1
Codec ID/Info : 	Advanced Video Coding
Duration : 	1h 27mn
Bit rate : 	1 500 Kbps
Width : 	720 pixels
Height : 	304 pixels
Display aspect ratio : 	2.35:1
Frame rate mode : 	Constant
Frame rate : 	23.976 fps
Color space : 	YUV
Chroma subsampling : 	4:2:0
Bit depth : 	8 bits
Scan type : 	Progressive
Bits/(Pixel*Frame) : 	0.286
Stream size : 	933 MiB (77%)
Writing library : 	x264 core 123 r2189 35cf912
Encoding settings : 	cabac=1 / ref=3 / deblock=1:0:0 / analyse=0x1:0x111 / me=hex / subme=7 / psy=1 / psy_rd=1.00:0.00 / mixed_ref=0 / me_range=16 / chroma_me=1 / trellis=1 / 8x8dct=0 / cqm=0 / deadzone=21,11 / fast_pskip=1 / chroma_qp_offset=-2 / threads=6 / sliced_threads=0 / nr=0 / decimate=1 / interlaced=0 / bluray_compat=0 / constrained_intra=0 / bframes=3 / b_pyramid=0 / b_adapt=1 / b_bias=0 / direct=1 / weightb=0 / open_gop=1 / weightp=2 / keyint=250 / keyint_min=23 / scenecut=40 / intra_refresh=0 / rc_lookahead=40 / rc=abr / mbtree=1 / bitrate=1500 / ratetol=1.0 / qcomp=0.60 / qpmin=0 / qpmax=69 / qpstep=4 / ip_ratio=1.25 / aq=1:1.00

Audio
ID : 	2
Format : 	AC-3
Format/Info : 	Audio Coding 3
Mode extension : 	CM (complete main)
Format settings, Endianness : 	Big
Codec ID : 	ac-3
Duration : 	1h 27mn
Bit rate mode : 	Constant
Bit rate : 	448 Kbps
Channel(s) : 	6 channels
Channel positions : 	Front: L C R, Side: L R, LFE
Sampling rate : 	48.0 KHz
Bit depth : 	16 bits
Compression mode : 	Lossy
Delay relative to video : 	42ms
Stream size : 	281 MiB (23%)
